<?xml version="1.0"?>
<svg xmlns="http://www.w3.org/2000/svg" xmlns:xlink="http://www.w3.org/1999/xlink" version="1.1" x="0px" y="0px" viewBox="2 2 95 95" xml:space="preserve">
  <g>
    <title>background</title>
    <rect fill="none" id="canvas_background" height="102" width="102" y="-1" x="-1"/>
  </g>
  <g>
    <title>Layer 1</title>
    <g id="svg_1">
      <path id="svg_2" d="m93.019997,15.996l-86.983997,0l0,49.023996l0,0.002007l86.983997,0l0.002007,0l0,-0.002007l0,-49.023996l-0.002007,0zm-50.047997,25.034998l4.168999,0l0,1.462002l-4.168999,0l0,-1.462002zm-8.575001,-2.408997l4.169003,0l0,1.461998l-4.169003,0l0,-1.461998zm7.575001,2.408997l0,1.462002l-23.710001,0l0,-1.462002l23.710001,0zm-8.574001,-0.946999l0,0l-15.136,0l0,-1.463001l15.136,0l0,1.463001zm-20.331999,-18.751999l4.169001,0l0,1.462l-4.169001,0l0,-1.462zm0,2.462l10.391001,0l0,1.462999l-10.391001,0l0,-1.462999zm0,2.462999l13.855,0l0,1.462l-13.855,0l0,-1.462zm0,2.462l10.391001,0l0,1.463001l-10.391001,0l0,-1.463001zm0,2.463001l10.391001,0l0,1.462l-10.391001,0l0,-1.462zm0,2.462l4.169001,0l0,1.462997l-4.169001,0l0,-1.462997zm0,2.461998l6.969999,0l0,1.462002l-6.969999,0l0,-1.462002zm0,2.514999l4.169001,0l0,1.463001l-4.169001,0l0,-1.463001zm0,2.41l4.169001,0l0,1.462002l-4.169001,0l0,-1.462002zm0,2.462002l4.169001,0l0,1.463001l-4.169001,0l0,-1.463001zm0,2.463001l33.213999,0l0,1.461998l-33.213999,0l0,-1.461998zm0,2.461998l4.169001,0l0,1.463001l-4.169001,0l0,-1.463001zm0,2.463001l20.330999,0l0,1.463001l-20.330999,0l0,-1.463001zm-2.264,-29.549l0,0l1.264,0l0,1.462l-1.263,0l-0.001,0l0,-1.462zm1.265,38.397999l0,0l-1.264,0l-0.001,0l0,-1.463001l0.001,0l1.263,0l0.001,0l0,1.463001zm0,-2.461998l0,0l-1.264,0l-0.001,0l0,-1.461002l0.001,0l1.263,0l0.001,0l0,1.461002zm0,-2.461002l0,0l-1.264,0l-0.001,0l0,-1.464001l0.001,0l1.263,0l0.001,0l0,1.464001zm0,-2.462997l0,0l-1.264,0l-0.001,0l0,-1.463001l0.001,0l1.263,0l0.001,0l0,1.463001zm0,-2.463001l0,0l-1.264,0l-0.001,0l0,-1.463001l0.001,0l1.263,0l0.001,0l0,1.463001zm0,-2.463001l0,0l-1.264,0l-0.001,0l0,-1.461998l0.001,0l1.263,0l0.001,0l0,1.461998zm0,-2.461998l0,0l-1.264,0l-0.001,0l0,-1.463001l0.001,0l1.263,0l0.001,0l0,1.463001zm0,-2.463001l0,0l-1.264,0l-0.001,0l0,-1.462002l0.001,0l1.263,0l0.001,0l0,1.462002zm0,-2.462002l0,0l-1.264,0l-0.001,0l0,-1.462997l0.001,0l1.263,0l0.001,0l0,1.462997zm0,-2.462997l0,0l-1.264,0l-0.001,0l0,-1.462002l0.001,0l1.263,0l0.001,0l0,1.462002zm0,-2.461002l-1.264,0l0,-0.000999l-0.001,0l0,-1.462997l1.264,0l0,0.000999l0.001,0l0,1.462997zm0,-2.462997l0,0l-1.264,0l-0.001,0l0,-1.462l0.001,0l1.263,0l0.001,0l0,1.462zm0,-2.462l0,0l-1.264,0l-0.001,0l0,-1.463001l0.001,0l1.263,0l0.001,0l0,1.463001zm0,-2.463001l0,0l-1.264,0l-0.001,0l0,-1.462l0.001,0l1.263,0l0.001,0l0,1.462zm0,-2.462l0,0l-1.264,0l-0.001,0l0,-1.462999l0.001,0l1.263,0l0.001,0l0,1.462999zm7.968999,34.473l-6.969999,0l0,-1.463001l6.969999,0l0,1.463001zm1.556,-2.461998l0,0l-8.524999,0l-0.001,0l0,-1.461002l0.001,0l8.523999,0l0.000999,0l0,1.461002zm8.525002,-2.461002l-17.051001,0l0,-1.464001l17.051001,0l0,1.464001zm5.238998,0l0,0l-4.168999,0l-0.000999,0l0,-1.462997l0.000999,0l4.167999,0l0.000999,0l0,1.462997zm10.924999,-4.925999l0,0l-28.018999,0l0,-1.463001l28.018,0l0.000999,0l0,1.463001zm5.158001,-4.924999l-33.177,0l0,-1.463001l33.177,0l0,1.463001zm5.167999,0l-4.167999,0l0,-1.463001l4.167999,0l0,1.463001z" fill="#2e2e2e"/>
      <circle id="svg_3" r="1.847" cy="72.829" cx="49.528" fill="#ffffff"/>
      <polygon fill="#737d83" id="svg_4" points="12.066,33.643 10.802,33.643 10.802,35.106 10.803,35.106 10.803,35.107 12.067,35.107 12.067,33.644    12.066,33.644  "/>
      <polygon fill="#737d83" id="svg_5" points="31.187,53.344 31.186,53.344 31.186,54.807 31.187,54.807 35.355,54.807 35.356,54.807 35.356,53.344    35.355,53.344  "/>
      <rect fill="#737d83" id="svg_6" height="1.462" width="4.169" y="41.031" x="42.972"/>
      <rect fill="#737d83" id="svg_7" height="1.462" width="4.169" y="38.622" x="34.397"/>
      <rect fill="#737d83" id="svg_8" height="1.462" width="4.169" y="21.332" x="13.066"/>
      <rect fill="#737d83" id="svg_9" height="1.463" width="4.169" y="33.644" x="13.066"/>
      <rect fill="#737d83" id="svg_10" height="1.463" width="4.169" y="38.621" x="13.066"/>
      <rect fill="#737d83" id="svg_11" height="1.462" width="4.169" y="41.031" x="13.066"/>
      <rect fill="#737d83" id="svg_12" height="1.462" width="6.97" y="36.106" x="13.066"/>
      <polygon fill="#737d83" id="svg_13" points="18.262,40.084 33.397,40.084 33.398,40.084 33.398,38.621 18.262,38.621  "/>
      <rect fill="#737d83" id="svg_14" height="1.462" width="23.71" y="41.031" x="18.262"/>
      <rect fill="#737d83" id="svg_15" height="1.463" width="4.169" y="43.493" x="13.066"/>
      <rect fill="#737d83" id="svg_16" height="1.463" width="4.169" y="48.418" x="13.066"/>
      <rect fill="#737d83" id="svg_17" height="1.463" width="4.168" y="43.493" x="52.439"/>
      <rect fill="#737d83" id="svg_18" height="1.463" width="33.177" y="43.493" x="18.262"/>
      <rect fill="#737d83" id="svg_19" height="1.462" width="33.214" y="45.956" x="13.066"/>
      <polygon fill="#737d83" id="svg_20" points="18.262,48.418 18.262,49.881 46.28,49.881 46.281,49.881 46.281,48.418 46.28,48.418  "/>
      <rect fill="#737d83" id="svg_21" height="1.463" width="20.331" y="50.881" x="13.066"/>
      <rect fill="#737d83" id="svg_22" height="1.464" width="17.051" y="53.343" x="13.066"/>
      <polygon fill="#737d83" id="svg_23" points="13.067,55.807 13.066,55.807 13.066,57.268 13.067,57.268 21.591,57.268 21.592,57.268 21.592,55.807    21.591,55.807  "/>
      <rect fill="#737d83" id="svg_24" height="1.463" width="6.97" y="58.268" x="13.066"/>
      <rect fill="#737d83" id="svg_25" height="1.463" width="10.391" y="23.794" x="13.066"/>
      <rect fill="#737d83" id="svg_26" height="1.462" width="13.855" y="26.257" x="13.066"/>
      <rect fill="#737d83" id="svg_27" height="1.463" width="10.391" y="28.719" x="13.066"/>
      <rect fill="#737d83" id="svg_28" height="1.462" width="10.391" y="31.182" x="13.066"/>
      <polygon fill="#737d83" id="svg_29" points="12.066,22.794 12.066,21.332 10.803,21.332 10.802,21.332 10.802,22.794 10.803,22.794  "/>
      <polygon fill="#737d83" id="svg_30" points="10.803,23.794 10.802,23.794 10.802,25.257 10.803,25.257 12.066,25.257 12.067,25.257 12.067,23.794    12.066,23.794  "/>
      <polygon fill="#737d83" id="svg_31" points="10.803,26.257 10.802,26.257 10.802,27.719 10.803,27.719 12.066,27.719 12.067,27.719 12.067,26.257    12.066,26.257  "/>
      <polygon fill="#737d83" id="svg_32" points="10.803,28.719 10.802,28.719 10.802,30.182 10.803,30.182 12.066,30.182 12.067,30.182 12.067,28.719    12.066,28.719  "/>
      <polygon fill="#737d83" id="svg_33" points="10.803,31.182 10.802,31.182 10.802,32.644 10.803,32.644 12.066,32.644 12.067,32.644 12.067,31.182    12.066,31.182  "/>
      <polygon fill="#737d83" id="svg_34" points="10.803,36.106 10.802,36.106 10.802,37.568 10.803,37.568 12.066,37.568 12.067,37.568 12.067,36.106    12.066,36.106  "/>
      <polygon fill="#737d83" id="svg_35" points="10.803,38.568 10.802,38.568 10.802,40.031 10.803,40.031 12.066,40.031 12.067,40.031 12.067,38.568    12.066,38.568  "/>
      <polygon fill="#737d83" id="svg_36" points="10.803,41.031 10.802,41.031 10.802,42.493 10.803,42.493 12.066,42.493 12.067,42.493 12.067,41.031    12.066,41.031  "/>
      <polygon fill="#737d83" id="svg_37" points="10.803,43.493 10.802,43.493 10.802,44.956 10.803,44.956 12.066,44.956 12.067,44.956 12.067,43.493    12.066,43.493  "/>
      <polygon fill="#737d83" id="svg_38" points="10.803,45.956 10.802,45.956 10.802,47.418 10.803,47.418 12.066,47.418 12.067,47.418 12.067,45.956    12.066,45.956  "/>
      <polygon fill="#737d83" id="svg_39" points="10.803,48.418 10.802,48.418 10.802,49.881 10.803,49.881 12.066,49.881 12.067,49.881 12.067,48.418    12.066,48.418  "/>
      <polygon fill="#737d83" id="svg_40" points="10.803,50.881 10.802,50.881 10.802,52.344 10.803,52.344 12.066,52.344 12.067,52.344 12.067,50.881    12.066,50.881  "/>
      <polygon fill="#737d83" id="svg_41" points="10.803,53.343 10.802,53.343 10.802,54.807 10.803,54.807 12.066,54.807 12.067,54.807 12.067,53.343    12.066,53.343"/>
      <polygon fill="#737d83" id="svg_42" points="10.803,55.807 10.802,55.807 10.802,57.268 10.803,57.268 12.066,57.268 12.067,57.268 12.067,55.807    12.066,55.807"/>
      <polygon fill="#737d83" id="svg_43" points="10.803,58.268 10.802,58.268 10.802,59.73 10.803,59.73 12.066,59.73 12.067,59.73 12.067,58.268 12.066,58.268"/>
      <path fill="#31a2dc" id="svg_44" d="m94.195,12.179l-43.880001,0l-1.494999,0l-43.881,0c-1.563,0 -2.91,1.189 -2.91,2.752l0,54.092003l0,0.188995l0,5.012001l0,0.314003c0,1.562996 1.347,2.876999 2.91,2.876999l35.145999,0c-0.041,0.895996 -0.320999,4.752998 -2.154999,6.623001c-1.445,1.473 -3.452999,2.853996 -2.668999,3.562996c0.189999,0.436005 1.091,0.688004 3.139999,0.688004c4.521,0 9.416,0 11.208,0c0.452999,0 0.707001,0 0.707001,0c1.792,0 6.688,0 11.207996,0c2.334003,0 3.148998,-0.382004 3.158001,-0.953003l-0.080002,0l0,-0.187996l-0.082001,0c-0.103996,-0.770004 -1.661995,-1.907005 -2.839996,-3.105003c-1.834,-1.870003 -2.112999,-5.726997 -2.153999,-6.623001l34.673996,0c1.563004,0 2.829002,-1.312996 2.829002,-2.876999l0,-0.314003l0,-5.011993l0,-0.189003l0,-54.094999c-0.001999,-1.565001 -1.268997,-2.754001 -2.834,-2.754001zm-44.667,62.497003c-1.021,0 -1.847,-0.824005 -1.847,-1.846001s0.826,-1.848 1.847,-1.848c1.02,0 1.847,0.825996 1.847,1.848c0.000999,1.021996 -0.827,1.846001 -1.847,1.846001zm43.495003,-9.656006l-0.001999,0l0,0.002007l-0.001007,0l-86.983997,0l0,-0.002007l0,-49.023996l86.983997,0l0.002007,0l0.001999,0l0,49.023996l-0.000999,0z"/>
    </g>
  </g>
</svg>
