<?xml version="1.0"?>
<svg xmlns="http://www.w3.org/2000/svg" xmlns:xlink="http://www.w3.org/1999/xlink" version="1.1" x="0px" y="0px" viewBox="0 0 100 100" xml:space="preserve">
  <g>
    <title>background</title>
    <rect fill="none" id="canvas_background" height="100" width="100" y="0" x="0"/>
  </g>
  <g>
    <title>Layer 1</title>
    <circle cx="50" cy="50.44" r="16.5" fill="#ededed"/>
    <path fill="#31a2dc" id="svg_1" d="m50,24c-14.584,0 -26.450001,11.865002 -26.450001,26.450001c0,10.66 6.343,19.860996 15.450001,24.044003l0,11.839996c0,0.919998 0.745998,1.666 1.666,1.666l18.667999,0c0.920002,0 1.666,-0.746002 1.666,-1.666l0,-11.839996c9.107002,-4.183006 15.449997,-13.384003 15.449997,-24.045002c0,-14.584 -11.864998,-26.449001 -26.449997,-26.449001zm0,42.899002c-9.07,0 -16.450001,-7.379002 -16.450001,-16.450001c0,-9.07 7.380001,-16.449001 16.450001,-16.449001s16.449997,7.379002 16.449997,16.450001c0,9.070999 -7.379997,16.449001 -16.449997,16.449001z"/>
    <path fill="#31a2dc" id="svg_2" d="m50,96.441002c4.104,0 7.431999,-2.441002 7.431999,-6.441002l-14.863998,0c0,4 3.327999,6.441002 7.431999,6.441002z"/>
    <path fill="#31a2dc" id="svg_3" d="m50,17c2.762001,0 5,-2.239 5,-5l0,-7c0,-2.761 -2.237999,-5 -5,-5c-2.761002,0 -5,2.239 -5,5l0,7c0,2.761 2.238998,5 5,5z"/>
    <path fill="#31a2dc" id="svg_4" d="m95,45l-7,0c-2.762001,0 -5,2.238998 -5,5c0,2.762001 2.237999,5 5,5l7,0c2.762001,0 5,-2.237999 5,-5c0,-2.761002 -2.237999,-5 -5,-5z"/>
    <path fill="#31a2dc" id="svg_5" d="m12,45l-7,0c-2.761,0 -5,2.238998 -5,5c0,2.762001 2.239,5 5,5l7,0c2.761,0 5,-2.237999 5,-5c0,-2.761002 -2.239,-5 -5,-5z"/>
    <path fill="#31a2dc" id="svg_6" d="m26.511,19.938999l-4.949999,-4.949999c-1.953001,-1.952001 -5.118,-1.952001 -7.071001,0c-1.953,1.952999 -1.953,5.118999 0,7.070999l4.950001,4.950001c0.976999,0.976 2.255999,1.464001 3.535999,1.464001s2.559,-0.488001 3.535999,-1.464001c1.951,-1.952 1.951,-5.118 -0.000999,-7.071001z"/>
    <path fill="#31a2dc" id="svg_7" d="m85.510002,14.989c-1.953003,-1.952001 -5.118004,-1.952001 -7.070999,0.000999l-4.949005,4.950001c-1.951996,1.952999 -1.951996,5.118999 0.000999,7.070999c0.977005,0.976 2.256004,1.464001 3.535004,1.464001s2.559998,-0.488001 3.535995,-1.465l4.949005,-4.950001c1.951996,-1.952999 1.951996,-5.118999 -0.000999,-7.070999z"/>
  </g>
</svg>
