<?xml version="1.0"?>
<svg xmlns="http://www.w3.org/2000/svg" xmlns:xlink="http://www.w3.org/1999/xlink" version="1.1" x="0px" y="0px" viewBox="0 0 96 96" xml:space="preserve">
  <g>
    <title>background</title>
    <rect fill="none" id="canvas_background" height="98" width="98" y="-1" x="-1"/>
  </g>
  <g>
    <title>Layer 1</title>
    <g id="svg_1">
      <rect fill="#2e2e2e" x="9.5" y="17" width="77" height="62" />
      <path fill="#31a2dc" id="svg_2" d="m91.051003,7.617l-86.102003,0c-2.722,0 -4.949,2.227 -4.949,4.949l0,70.866999c0,2.723 2.227,4.949005 4.949,4.949005l86.102003,0c2.722,0 4.948997,-2.227005 4.948997,-4.949005l0,-70.866999c0,-2.722 -2.227997,-4.949 -4.948997,-4.949zm-4.652,71.316998l-76.799002,0l0,-61.867998l76.800001,0l0,61.867998l-0.000999,0z"/>
      <rect fill="#737d83" id="svg_3" height="5.039" width="2.232" y="22.771503" x="54.943508"/>
      <path fill="#737d83" id="svg_4" d="m57.667522,25.660503l0,2.647999l-3.215004,0l0,-2.647999l-17.854004,0l0,27.137001l22.712006,0l0,-27.137001l-1.642998,0zm-3.523003,22.832001l-12.380001,0l0,-1.786999l12.380001,0l0,1.786999zm0,-5.501999l-12.380001,0l0,-1.787003l12.380001,0l0,1.787003zm0,-5.5l-12.380001,0l0,-1.789001l12.380001,0l0,1.789001zm0,-5.502003l-12.380001,0l0,-1.786999l12.380001,0l0,1.786999z"/>
      <rect fill="#737d83" id="svg_12" height="5.039" width="2.232" y="22.709004" x="29.81852"/>
      <path fill="#737d83" id="svg_13" d="m32.542522,25.597998l0,2.648003l-3.215008,0l0,-2.648003l-17.853998,0l0,27.136999l22.712004,0l0,-27.136999l-1.642998,0zm-3.523005,22.832006l-12.380001,0l0,-1.787003l12.380001,0l0,1.787003zm0,-5.501999l-12.380001,0l0,-1.787003l12.380001,0l0,1.787003zm0,-5.5l-12.380001,0l0,-1.789001l12.380001,0l0,1.789001zm0,-5.502007l-12.380001,0l0,-1.787001l12.380001,0l0,1.787001z"/>
      <rect fill="#737d83" id="svg_15" height="5.039" width="2.232" y="22.709003" x="79.880997"/>
      <path fill="#737d83" id="svg_16" d="m82.605003,25.598l0,2.647991l-3.215004,0l0,-2.647991l-17.854012,0l0,27.137001l22.712013,0l0,-27.137001l-1.642998,0zm-3.523003,22.832001l-12.379997,0l0,-1.786999l12.379997,0l0,1.786999zm0,-5.501999l-12.379997,0l0,-1.787003l12.379997,0l0,1.787003zm0,-5.5l-12.379997,0l0,-1.789001l12.379997,0l0,1.789001zm0,-5.50201l-12.379997,0l0,-1.786991l12.379997,0l0,1.786991z"/>
    </g>
  </g>
</svg>