<svg xmlns="http://www.w3.org/2000/svg" xmlns:xlink="http://www.w3.org/1999/xlink" version="1.1" x="0px" y="0px" viewBox="0 0 100 125" enable-background="new 0 0 100 100" xml:space="preserve"><path d="M50,24c-14.584,0-26.45,11.865-26.45,26.45c0,10.66,6.343,19.861,15.45,24.044v11.84C39,87.254,39.746,88,40.666,88h18.668  C60.254,88,61,87.254,61,86.334v-11.84c9.107-4.183,15.45-13.384,15.45-24.045C76.45,35.865,64.585,24,50,24z M50,66.899  c-9.07,0-16.45-7.379-16.45-16.45C33.55,41.379,40.93,34,50,34s16.45,7.379,16.45,16.45C66.45,59.521,59.07,66.899,50,66.899z"/><path d="M50,96.441c4.104,0,7.432-2.441,7.432-6.441H42.568C42.568,94,45.896,96.441,50,96.441z"/><path d="M50,17c2.762,0,5-2.239,5-5V5c0-2.761-2.238-5-5-5c-2.761,0-5,2.239-5,5v7C45,14.761,47.239,17,50,17z"/><path d="M95,45h-7c-2.762,0-5,2.239-5,5c0,2.762,2.238,5,5,5h7c2.762,0,5-2.238,5-5C100,47.239,97.762,45,95,45z"/><path d="M12,45H5c-2.761,0-5,2.239-5,5c0,2.762,2.239,5,5,5h7c2.761,0,5-2.238,5-5C17,47.239,14.761,45,12,45z"/><path d="M26.511,19.939l-4.95-4.95c-1.953-1.952-5.118-1.952-7.071,0c-1.953,1.953-1.953,5.119,0,7.071l4.95,4.95  c0.977,0.976,2.256,1.464,3.536,1.464s2.559-0.488,3.536-1.464C28.463,25.058,28.463,21.892,26.511,19.939z"/><path d="M85.51,14.989c-1.953-1.952-5.118-1.952-7.071,0.001l-4.949,4.95c-1.952,1.953-1.952,5.119,0.001,7.071  c0.977,0.976,2.256,1.464,3.535,1.464s2.56-0.488,3.536-1.465l4.949-4.95C87.463,20.107,87.463,16.941,85.51,14.989z"/><text x="0" y="115" fill="#000000" font-size="5px" font-weight="bold" font-family="'Helvetica Neue', Helvetica, Arial-Unicode, Arial, Sans-serif">Created by Christelle Mozzati</text><text x="0" y="120" fill="#000000" font-size="5px" font-weight="bold" font-family="'Helvetica Neue', Helvetica, Arial-Unicode, Arial, Sans-serif">from the Noun Project</text></svg>