<svg xmlns="http://www.w3.org/2000/svg" xmlns:xlink="http://www.w3.org/1999/xlink" version="1.1" x="0px" y="0px" viewBox="0 0 100 125" enable-background="new 0 0 100 100" xml:space="preserve"><path d="M56.065,67.814c0.106-0.281,0.354-0.776,0.923-1.632l0.113-0.172c0.694-1.058,1.077-1.642,1.377-3.164  c0.049-0.244,0.345-0.861,0.589-1.116c0.83-0.843,1.708-3.72,1.139-5.429c-0.021-0.059-0.068-0.172-0.144-0.323  c-0.243-0.486-0.292-0.697-0.289-0.79c0.13-1.83-0.053-3.54-0.539-5.078c-0.696-2.241-2.729-4.266-5.179-5.16  c-1.485-0.545-2.822-0.62-4.063-0.62c-1.223,0-2.559,0.075-4.036,0.619c-2.485,0.903-4.474,2.878-5.19,5.151  c-0.485,1.522-0.667,3.232-0.542,5.094c0.003,0.091-0.044,0.3-0.287,0.785c-0.075,0.151-0.123,0.265-0.148,0.337  c-0.561,1.679,0.309,4.557,1.131,5.404c0.257,0.267,0.551,0.88,0.6,1.125c0.301,1.521,0.682,2.101,1.373,3.154l0.155,0.235  c0.539,0.812,0.777,1.295,0.882,1.571c-2.007,1.214-9.228,5.87-9.228,9.54c-0.001,1.174-0.002,3.139,2.494,4.479  c2.24,1.202,6.308,1.762,12.805,1.762c6.496,0,10.564-0.56,12.805-1.762c2.496-1.341,2.495-3.307,2.494-4.548  C65.301,73.875,58.068,69.069,56.065,67.814z M61.434,79.268c-1.752,0.94-5.598,1.418-11.432,1.418s-9.68-0.477-11.432-1.417  c-0.965-0.519-0.965-0.929-0.964-1.99c0-1.648,6.264-6.279,7.991-7.108c0.603-0.263,1.037-0.748,1.219-1.367  c0.385-1.304-0.422-2.777-1.375-4.21l-0.121-0.185c-0.616-0.939-0.762-1.162-0.954-2.128c-0.141-0.714-0.667-1.861-1.302-2.51  c-0.288-0.424-0.691-2.026-0.53-2.494c0.197-0.396,0.659-1.32,0.585-2.289c-0.101-1.484,0.038-2.832,0.413-4.009  c0.438-1.392,1.811-2.718,3.419-3.303c1.109-0.408,2.109-0.442,3.056-0.442c0.931,0,1.934,0.034,3.048,0.443  c1.606,0.586,2.974,1.91,3.406,3.303c0.373,1.177,0.517,2.561,0.414,3.998c-0.068,0.941,0.355,1.832,0.595,2.312  c0.128,0.562-0.256,2.065-0.486,2.416c-0.69,0.72-1.213,1.861-1.355,2.576c-0.191,0.969-0.322,1.169-0.957,2.135l-0.141,0.215  c-0.929,1.396-1.735,2.868-1.351,4.17c0.184,0.62,0.617,1.105,1.2,1.357c3.614,1.789,7.961,6.466,8.015,7.188  C62.398,78.34,62.398,78.75,61.434,79.268z M85.768,39.896c0.106-0.281,0.355-0.776,0.925-1.635l0.118-0.181  c0.691-1.055,1.072-1.637,1.372-3.161c0.046-0.236,0.346-0.86,0.584-1.108c0.83-0.841,1.711-3.719,1.143-5.427  c-0.021-0.059-0.068-0.172-0.143-0.323c-0.261-0.522-0.295-0.727-0.293-0.793c0.13-1.83-0.051-3.54-0.535-5.08  c-0.712-2.271-2.697-4.247-5.185-5.16c-1.486-0.542-2.821-0.616-4.061-0.616c-1.22,0-2.553,0.075-4.041,0.617  c-2.484,0.909-4.472,2.886-5.186,5.154c-0.482,1.521-0.665,3.23-0.541,5.091c0.004,0.09-0.044,0.299-0.285,0.785  c-0.08,0.161-0.13,0.281-0.149,0.341c-0.563,1.685,0.312,4.562,1.131,5.399c0.256,0.266,0.553,0.885,0.602,1.123  c0.3,1.53,0.684,2.114,1.38,3.174l0.153,0.233c0.532,0.803,0.771,1.28,0.875,1.558c-2.003,1.211-9.229,5.868-9.229,9.537  c-0.001,1.176-0.002,3.142,2.493,4.484c2.241,1.204,6.311,1.764,12.807,1.764s10.565-0.56,12.805-1.764  c2.495-1.342,2.494-3.308,2.493-4.551C95,45.949,87.772,41.151,85.768,39.896z M91.133,51.349  c-1.752,0.941-5.598,1.419-11.431,1.419c-5.834,0-9.68-0.478-11.432-1.419c-0.966-0.519-0.966-0.931-0.965-1.993  c0-1.646,6.265-6.276,7.99-7.105c0.604-0.261,1.037-0.746,1.222-1.365c0.386-1.297-0.417-2.767-1.374-4.213L75.03,36.5  c-0.636-0.967-0.768-1.168-0.961-2.148c-0.145-0.711-0.669-1.853-1.303-2.504c-0.287-0.423-0.692-2.021-0.526-2.497  c0.196-0.395,0.655-1.318,0.582-2.282c-0.1-1.485,0.04-2.834,0.413-4.012c0.437-1.387,1.809-2.714,3.413-3.301  c1.115-0.406,2.116-0.44,3.064-0.44c0.93,0,1.931,0.034,3.044,0.439c1.605,0.589,2.977,1.916,3.411,3.303  c0.371,1.176,0.512,2.561,0.408,4.011c-0.061,0.937,0.361,1.824,0.6,2.304c0.127,0.56-0.258,2.062-0.49,2.415  c-0.692,0.722-1.213,1.866-1.352,2.574c-0.19,0.966-0.337,1.189-0.952,2.127l-0.155,0.237c-0.924,1.395-1.726,2.864-1.342,4.159  c0.183,0.618,0.615,1.103,1.199,1.355c3.612,1.786,7.959,6.463,8.013,7.184C92.098,50.418,92.098,50.83,91.133,51.349z   M33.106,53.906c2.496-1.343,2.494-3.309,2.493-4.551c0-3.402-7.23-8.205-9.233-9.46c0.106-0.28,0.354-0.774,0.921-1.631l0.104-0.16  c0.7-1.063,1.085-1.649,1.387-3.18c0.048-0.245,0.343-0.86,0.587-1.113c0.829-0.84,1.708-3.716,1.142-5.42  c-0.021-0.059-0.069-0.176-0.146-0.331c-0.244-0.489-0.291-0.7-0.288-0.793c0.128-1.803-0.06-3.561-0.54-5.077  c-0.695-2.236-2.729-4.263-5.184-5.163c-1.481-0.542-2.818-0.617-4.06-0.617c-1.219,0-2.552,0.075-4.041,0.617  c-2.482,0.909-4.47,2.884-5.186,5.154c-0.482,1.519-0.665,3.227-0.543,5.094c0.003,0.089-0.043,0.296-0.282,0.779  c-0.083,0.169-0.135,0.297-0.149,0.343c-0.562,1.68,0.307,4.556,1.128,5.402c0.256,0.265,0.553,0.882,0.601,1.121  c0.302,1.526,0.685,2.109,1.377,3.167l0.155,0.236c0.533,0.805,0.771,1.283,0.877,1.561C12.221,41.1,5,45.749,5,49.423  c-0.001,1.176-0.002,3.142,2.494,4.483c2.24,1.204,6.31,1.764,12.808,1.764C26.798,55.67,30.866,55.11,33.106,53.906z M7.903,49.355  c0-1.609,6.314-6.301,7.993-7.106c0.603-0.262,1.036-0.746,1.219-1.365c0.385-1.297-0.417-2.768-1.374-4.211l-0.115-0.176  c-0.633-0.966-0.765-1.167-0.959-2.146c-0.145-0.713-0.672-1.856-1.303-2.5c-0.287-0.424-0.689-2.025-0.521-2.51  c0.21-0.427,0.649-1.316,0.574-2.271c-0.097-1.488,0.042-2.837,0.416-4.012c0.438-1.389,1.811-2.716,3.413-3.302  c1.117-0.407,2.117-0.441,3.062-0.441c0.932,0,1.936,0.034,3.044,0.439c1.61,0.591,2.98,1.916,3.412,3.306  c0.374,1.178,0.517,2.562,0.415,3.998c-0.069,0.941,0.354,1.832,0.592,2.313c0.128,0.561-0.255,2.065-0.484,2.415  c-0.69,0.717-1.214,1.86-1.356,2.575c-0.192,0.975-0.325,1.177-0.964,2.149l-0.147,0.224c-0.921,1.393-1.72,2.86-1.336,4.153  c0.184,0.619,0.618,1.103,1.199,1.354c3.613,1.789,7.96,6.464,8.014,7.184c0.001,0.994,0.001,1.406-0.964,1.924  c-1.751,0.941-5.597,1.419-11.429,1.419c-5.835,0-9.683-0.478-11.434-1.419C7.902,50.83,7.902,50.418,7.903,49.355z M80.536,61.682  C77.307,64.76,72.145,67.349,66,68.971c-0.775,0.204-1.238,0.999-1.033,1.774c0.172,0.651,0.76,1.081,1.402,1.081  c0.123,0,0.248-0.016,0.372-0.048c6.706-1.771,12.168-4.536,15.798-7.995c0.58-0.553,0.603-1.472,0.05-2.052  C82.035,61.151,81.117,61.13,80.536,61.682z M34.002,68.971c-6.144-1.622-11.306-4.211-14.534-7.289  c-0.58-0.552-1.499-0.53-2.052,0.05s-0.531,1.498,0.049,2.052c3.628,3.459,9.091,6.224,15.797,7.995  c0.124,0.032,0.249,0.048,0.371,0.048c0.643,0,1.23-0.43,1.403-1.081C35.24,69.97,34.777,69.176,34.002,68.971z M33.917,39.144  c9.84-2.623,22.328-2.623,32.166,0c0.126,0.034,0.251,0.05,0.375,0.05c0.642,0,1.229-0.429,1.401-1.079  c0.207-0.774-0.254-1.569-1.028-1.776c-5.233-1.396-10.896-2.103-16.829-2.103c-5.935,0-11.598,0.708-16.832,2.103  c-0.775,0.207-1.235,1.001-1.029,1.776C32.348,38.89,33.143,39.351,33.917,39.144z"/><text x="0" y="115" fill="#000000" font-size="5px" font-weight="bold" font-family="'Helvetica Neue', Helvetica, Arial-Unicode, Arial, Sans-serif">Created by Sergey Demushkin</text><text x="0" y="120" fill="#000000" font-size="5px" font-weight="bold" font-family="'Helvetica Neue', Helvetica, Arial-Unicode, Arial, Sans-serif">from the Noun Project</text></svg>