<svg xmlns="http://www.w3.org/2000/svg" xmlns:xlink="http://www.w3.org/1999/xlink" version="1.1" x="0px" y="0px" viewBox="0 0 96 120" enable-background="new 0 0 96 96" xml:space="preserve"><g><path d="M91.051,7.617H4.949C2.227,7.617,0,9.844,0,12.566v70.867c0,2.723,2.227,4.949,4.949,4.949h86.102   c2.722,0,4.949-2.227,4.949-4.949V12.566C96,9.844,93.772,7.617,91.051,7.617z M86.399,78.934H9.6V17.066h76.8V78.934z"/><rect x="75.006" y="21.709" width="2.232" height="5.039"/><path d="M77.73,24.598v2.648h-3.215v-2.648H56.661v27.137h22.712V24.598H77.73z M74.207,47.43h-12.38v-1.787h12.38V47.43z    M74.207,41.928h-12.38v-1.787h12.38V41.928z M74.207,36.428h-12.38v-1.789h12.38V36.428z M74.207,30.926h-12.38v-1.787h12.38   V30.926z"/><rect x="46.884" y="43.953" width="2.232" height="5.037"/><path d="M49.607,47.154v2.336h-3.215v-2.336H31.207v27.137h22.711V47.154H49.607z M48.753,69.988h-12.38v-1.789h12.38V69.988z    M48.753,64.486h-12.38v-1.787h12.38V64.486z M48.753,58.984h-12.38v-1.787h12.38V58.984z M48.753,53.482h-12.38v-1.787h12.38   V53.482z"/><rect x="25.023" y="18.939" width="2.232" height="5.039"/><path d="M27.748,21.709v2.77h-3.215v-2.77h-7.906V45.9h20.247V21.709H27.748z M32.27,42.064H21.232v-1.594H32.27V42.064z    M32.27,37.16H21.232v-1.594H32.27V37.16z M32.27,32.254H21.232V30.66H32.27V32.254z M32.27,27.35H21.232v-1.594H32.27V27.35z"/></g><text x="0" y="111" fill="#000000" font-size="5px" font-weight="bold" font-family="'Helvetica Neue', Helvetica, Arial-Unicode, Arial, Sans-serif">Created by Creative Stall</text><text x="0" y="116" fill="#000000" font-size="5px" font-weight="bold" font-family="'Helvetica Neue', Helvetica, Arial-Unicode, Arial, Sans-serif">from the Noun Project</text></svg>